<?xml version="1.0" standalone="no"?>
<svg xmlns="http://www.w3.org/2000/svg" xmlns:xlink="http://www.w3.org/1999/xlink" width="396pt" height="943pt" viewBox="0.00 0.00 396.15 943.20">
<g id="graph0" class="graph" transform="translate(36,907.2000122070312) scale(1)" data-name="FilterCSVByAge">

<polygon fill="white" stroke="none" points="-36,36 -36,-907.2 360.15,-907.2 360.15,36 -36,36" style=""/>
<text text-anchor="middle" x="162.07" y="-854.6" font-family="Times,serif" font-size="14.00" style="">Filter CSV by Age </text>
<!-- start -->
<g id="node1" class="node" pointer-events="visible" data-name="start">

<ellipse fill="none" stroke="black" cx="114.6" cy="-812.4" rx="29.05" ry="18" style=""/>
<text text-anchor="middle" x="114.6" y="-808.2" font-family="Times,serif" font-size="14.00" style="">Start</text>
</g>
<!-- setup -->
<g id="node2" class="node" pointer-events="visible" data-name="setup">

<polygon fill="none" stroke="black" points="179.94,-757.2 49.26,-757.2 49.26,-716 179.94,-716 179.94,-757.2" style=""/>
<text text-anchor="middle" x="114.6" y="-740.8" font-family="Times,serif" font-size="14.00" style="">Læs maks-alder</text>
<text text-anchor="middle" x="114.6" y="-724" font-family="Times,serif" font-size="14.00" style="">og vælg input/output</text>
</g>
<!-- start&#45;&gt;setup -->
<g id="edge1" class="edge" data-name="start-&gt;setup">

<path fill="none" stroke="black" d="M114.6,-793.91C114.6,-786.41 114.6,-777.41 114.6,-768.83" style=""/>
<polygon fill="black" stroke="black" points="118.1,-769.08 114.6,-759.08 111.1,-769.08 118.1,-769.08" style=""/>
</g>
<!-- laes_linje -->
<g id="node3" class="node" pointer-events="visible" data-name="laes_linje">

<polygon fill="none" stroke="black" points="147.49,-678.6 81.72,-678.6 81.72,-637.4 147.49,-637.4 147.49,-678.6" style=""/>
<text text-anchor="middle" x="114.6" y="-662.2" font-family="Times,serif" font-size="14.00" style="">Læs linje</text>
<text text-anchor="middle" x="114.6" y="-645.4" font-family="Times,serif" font-size="14.00" style="">fra input</text>
</g>
<!-- setup&#45;&gt;laes_linje -->
<g id="edge2" class="edge" data-name="setup-&gt;laes_linje">

<path fill="none" stroke="black" d="M114.6,-715.87C114.6,-708.07 114.6,-698.91 114.6,-690.25" style=""/>
<polygon fill="black" stroke="black" points="118.1,-690.44 114.6,-680.44 111.1,-690.44 118.1,-690.44" style=""/>
</g>
<!-- flere_linjer -->
<g id="node5" class="node" pointer-events="visible" data-name="flere_linjer">

<polygon fill="none" stroke="black" points="114.6,-600.2 -0.1,-582.2 114.6,-564.2 229.3,-582.2 114.6,-600.2" style=""/>
<text text-anchor="middle" x="114.6" y="-578" font-family="Times,serif" font-size="14.00" style="">Blev en linje læst?</text>
</g>
<!-- laes_linje&#45;&gt;flere_linjer -->
<g id="edge3" class="edge" data-name="laes_linje-&gt;flere_linjer">

<path fill="none" stroke="black" d="M114.6,-637.22C114.6,-629.45 114.6,-620.36 114.6,-611.89" style=""/>
<polygon fill="black" stroke="black" points="118.1,-612.03 114.6,-602.03 111.1,-612.03 118.1,-612.03" style=""/>
</g>
<!-- laes_ny_linje -->
<g id="node4" class="node" pointer-events="visible" data-name="laes_ny_linje">

<polygon fill="none" stroke="black" points="139.04,-41.4 40.17,-41.4 40.17,-0.2 139.04,-0.2 139.04,-41.4" style=""/>
<text text-anchor="middle" x="89.6" y="-25" font-family="Times,serif" font-size="14.00" style="">Læs næste linje</text>
<text text-anchor="middle" x="89.6" y="-8.2" font-family="Times,serif" font-size="14.00" style="">fra input</text>
</g>
<!-- laes_ny_linje&#45;&gt;flere_linjer -->
<g id="edge14" class="edge" data-name="laes_ny_linje-&gt;flere_linjer">

<path fill="none" stroke="black" d="M50.6,-41.88C31.1,-54.96 11.6,-74.11 11.6,-98.4 11.6,-470.8 11.6,-470.8 11.6,-470.8 11.6,-511.31 49.13,-543.14 78.88,-562.01" style=""/>
<polygon fill="black" stroke="black" points="76.95,-564.93 87.32,-567.12 80.58,-558.94 76.95,-564.93" style=""/>
</g>
<!-- gyldig_linje -->
<g id="node6" class="node" pointer-events="visible" data-name="gyldig_linje">

<polygon fill="none" stroke="black" points="114.6,-511.5 49.91,-469.8 114.6,-428.1 179.29,-469.8 114.6,-511.5" style=""/>
<text text-anchor="middle" x="114.6" y="-474" font-family="Times,serif" font-size="14.00" style="">Er linjen</text>
<text text-anchor="middle" x="114.6" y="-457.2" font-family="Times,serif" font-size="14.00" style="">gyldig?</text>
</g>
<!-- flere_linjer&#45;&gt;gyldig_linje -->
<g id="edge5" class="edge" data-name="flere_linjer-&gt;gyldig_linje">

<path fill="none" stroke="black" d="M114.6,-563.95C114.6,-552.83 114.6,-537.74 114.6,-522.94" style=""/>
<polygon fill="black" stroke="black" points="118.1,-523.27 114.6,-513.27 111.1,-523.27 118.1,-523.27" style=""/>
<text text-anchor="middle" x="123.93" y="-533.6" font-family="Times,serif" font-size="14.00" style="">  Ja</text>
</g>
<!-- end -->
<g id="node12" class="node" pointer-events="visible" data-name="end">

<ellipse fill="none" stroke="black" cx="231.6" cy="-469.8" rx="27" ry="18" style=""/>
<text text-anchor="middle" x="231.6" y="-465.6" font-family="Times,serif" font-size="14.00" style="">Slut</text>
</g>
<!-- flere_linjer&#45;&gt;end -->
<g id="edge4" class="edge" data-name="flere_linjer-&gt;end">

<path fill="none" stroke="black" d="M131.37,-566.49C147.14,-552.54 171.29,-530.89 191.6,-511.4 197.69,-505.56 204.16,-499.11 210.08,-493.1" style=""/>
<polygon fill="black" stroke="black" points="212.18,-495.96 216.67,-486.36 207.17,-491.06 212.18,-495.96" style=""/>
<text text-anchor="middle" x="185.21" y="-533.6" font-family="Times,serif" font-size="14.00" style="">  Nej</text>
</g>
<!-- rapporter_fejl -->
<g id="node7" class="node" pointer-events="visible" data-name="rapporter_fejl">

<polygon fill="none" stroke="black" points="130.02,-315.6 35.18,-315.6 35.18,-274.4 130.02,-274.4 130.02,-315.6" style=""/>
<text text-anchor="middle" x="82.6" y="-299.2" font-family="Times,serif" font-size="14.00" style="">Rapportér fejl</text>
<text text-anchor="middle" x="82.6" y="-282.4" font-family="Times,serif" font-size="14.00" style="">for linjen</text>
</g>
<!-- gyldig_linje&#45;&gt;rapporter_fejl -->
<g id="edge6" class="edge" data-name="gyldig_linje-&gt;rapporter_fejl">

<path fill="none" stroke="black" d="M107.81,-432.15C102.04,-400.98 93.84,-356.7 88.38,-327.2" style=""/>
<polygon fill="black" stroke="black" points="91.83,-326.6 86.57,-317.41 84.94,-327.88 91.83,-326.6" style=""/>
<text text-anchor="middle" x="117.21" y="-397.6" font-family="Times,serif" font-size="14.00" style="">  Nej</text>
</g>
<!-- udtraek_alder -->
<g id="node8" class="node" pointer-events="visible" data-name="udtraek_alder">

<polygon fill="none" stroke="black" points="224.24,-375.2 136.96,-375.2 136.96,-334 224.24,-334 224.24,-375.2" style=""/>
<text text-anchor="middle" x="180.6" y="-358.8" font-family="Times,serif" font-size="14.00" style="">Udtræk alder</text>
<text text-anchor="middle" x="180.6" y="-342" font-family="Times,serif" font-size="14.00" style="">fra linjen</text>
</g>
<!-- gyldig_linje&#45;&gt;udtraek_alder -->
<g id="edge8" class="edge" data-name="gyldig_linje-&gt;udtraek_alder">

<path fill="none" stroke="black" d="M131.94,-439.06C141.62,-422.46 153.64,-401.85 163.31,-385.26" style=""/>
<polygon fill="black" stroke="black" points="166.21,-387.23 168.22,-376.83 160.16,-383.71 166.21,-387.23" style=""/>
<text text-anchor="middle" x="166.93" y="-397.6" font-family="Times,serif" font-size="14.00" style="">  Ja</text>
</g>
<!-- rapporter_fejl&#45;&gt;laes_ny_linje -->
<g id="edge7" class="edge" data-name="rapporter_fejl-&gt;laes_ny_linje">

<path fill="none" stroke="black" d="M83.12,-273.98C84.32,-227.09 87.34,-109.8 88.79,-53.26" style=""/>
<polygon fill="black" stroke="black" points="92.29,-53.44 89.05,-43.36 85.29,-53.26 92.29,-53.44" style=""/>
</g>
<!-- sammenlign_alder -->
<g id="node9" class="node" pointer-events="visible" data-name="sammenlign_alder">

<polygon fill="none" stroke="black" points="184.6,-256.3 100.29,-214.6 184.6,-172.9 268.92,-214.6 184.6,-256.3" style=""/>
<text text-anchor="middle" x="184.6" y="-218.8" font-family="Times,serif" font-size="14.00" style="">Er alder ≤</text>
<text text-anchor="middle" x="184.6" y="-202" font-family="Times,serif" font-size="14.00" style="">maks-alder?</text>
</g>
<!-- udtraek_alder&#45;&gt;sammenlign_alder -->
<g id="edge9" class="edge" data-name="udtraek_alder-&gt;sammenlign_alder">

<path fill="none" stroke="black" d="M181.18,-333.53C181.68,-316.27 182.43,-290.58 183.09,-267.58" style=""/>
<polygon fill="black" stroke="black" points="186.59,-267.82 183.38,-257.72 179.59,-267.61 186.59,-267.82" style=""/>
</g>
<!-- skriv_linje -->
<g id="node10" class="node" pointer-events="visible" data-name="skriv_linje">

<polygon fill="none" stroke="black" points="182.32,-120 100.88,-120 100.88,-78.8 182.32,-78.8 182.32,-120" style=""/>
<text text-anchor="middle" x="141.6" y="-103.6" font-family="Times,serif" font-size="14.00" style="">Skriv linjen</text>
<text text-anchor="middle" x="141.6" y="-86.8" font-family="Times,serif" font-size="14.00" style="">til output</text>
</g>
<!-- sammenlign_alder&#45;&gt;skriv_linje -->
<g id="edge10" class="edge" data-name="sammenlign_alder-&gt;skriv_linje">

<path fill="none" stroke="black" d="M171.47,-179.02C165.64,-163.68 158.84,-145.79 153.21,-130.95" style=""/>
<polygon fill="black" stroke="black" points="156.52,-129.82 149.7,-121.71 149.98,-132.3 156.52,-129.82" style=""/>
<text text-anchor="middle" x="171.93" y="-142.4" font-family="Times,serif" font-size="14.00" style="">  Ja</text>
</g>
<!-- skip_linje -->
<g id="node11" class="node" pointer-events="visible" data-name="skip_linje">

<polygon fill="none" stroke="black" points="324.2,-117.4 207,-117.4 207,-81.4 324.2,-81.4 324.2,-117.4" style=""/>
<text text-anchor="middle" x="265.6" y="-95.2" font-family="Times,serif" font-size="14.00" style="">Spring linjen over</text>
</g>
<!-- sammenlign_alder&#45;&gt;skip_linje -->
<g id="edge11" class="edge" data-name="sammenlign_alder-&gt;skip_linje">

<path fill="none" stroke="black" d="M206.31,-183.26C218.84,-165.75 234.47,-143.91 246.53,-127.06" style=""/>
<polygon fill="black" stroke="black" points="249.31,-129.18 252.29,-119.01 243.62,-125.1 249.31,-129.18" style=""/>
<text text-anchor="middle" x="250.21" y="-142.4" font-family="Times,serif" font-size="14.00" style="">  Nej</text>
</g>
<!-- skriv_linje&#45;&gt;laes_ny_linje -->
<g id="edge12" class="edge" data-name="skriv_linje-&gt;laes_ny_linje">

<path fill="none" stroke="black" d="M128.21,-78.67C122.49,-70.25 115.7,-60.25 109.42,-51" style=""/>
<polygon fill="black" stroke="black" points="112.49,-49.29 103.98,-42.98 106.7,-53.22 112.49,-49.29" style=""/>
</g>
<!-- skip_linje&#45;&gt;laes_ny_linje -->
<g id="edge13" class="edge" data-name="skip_linje-&gt;laes_ny_linje">

<path fill="none" stroke="black" d="M225.66,-81.02C202.13,-70.78 171.98,-57.66 146.05,-46.37" style=""/>
<polygon fill="black" stroke="black" points="147.55,-43.2 136.99,-42.42 144.76,-49.62 147.55,-43.2" style=""/>
</g>
</g>
</svg>